# xmcd
#
# Track frame offsets: 
#        150
#        17800
#        35026
#        47276
#        62396
#        83663
#        103419
#        117210
#        132707
#        154563
#        177502
#        193353
#
# Disc length: 2912 seconds
#
# Revision: 0
# Processed by: cddbd v1.5.1PL0 Copyright (c) Steve Scherf et al.
# Submitted via: ExactAudioCopy v0.95a4
#
DISCID=a30b5e0c
DTITLE=Simpkins, David - Long Story Short
DYEAR=2004
DGENRE=Rock
TTITLE0=Something New
TTITLE1=Take Me Down
TTITLE2=Half A Dozen Lies
TTITLE3=Commandment Eleven
TTITLE4=Window
TTITLE5=After Glory
TTITLE6=Positively Polk Street
TTITLE7=From Baltimore
TTITLE8=Promise Me
TTITLE9=All Because Of You
TTITLE10=The Consumer
TTITLE11=Lighthouse
EXTD=
EXTT0=
EXTT1=
EXTT2=
EXTT3=
EXTT4=
EXTT5=
EXTT6=
EXTT7=
EXTT8=
EXTT9=
EXTT10=
EXTT11=
PLAYORDER=
